<?xml version="1.0" encoding="UTF-8" standalone="no"?>
<!-- Created with Inkscape (http://www.inkscape.org/) -->

<svg
   xmlns:svg="http://www.w3.org/2000/svg"
   xmlns="http://www.w3.org/2000/svg"
   version="1.1"
   width="1052.5"
   height="743.75"
   id="svg2836"
   xml:space="preserve"><defs
     id="defs2840"><clipPath
       id="clipPath2848"><path
         d="M 0,0 595,0 595,842 0,842 0,0 z"
         id="path2850" /></clipPath></defs><g
     transform="matrix(0,1.25,1.25,0,0,0)"
     clip-path="url(#clipPath2848)"
     id="g2846"><g
       transform="scale(0.1,0.1)"
       id="g2852"><path
         d="m 5092,1270 0,6220"
         id="path2854"
         style="fill:none;stroke:#000000;stroke-width:2.5;stroke-linecap:butt;stroke-linejoin:miter;stroke-miterlimit:10;stroke-opacity:1;stroke-dasharray:10, 20;stroke-dashoffset:0" /><path
         d="m 5092,1270 0,63 m 0,6157 0,-63"
         id="path2856"
         style="fill:none;stroke:#000000;stroke-width:10;stroke-linecap:butt;stroke-linejoin:miter;stroke-miterlimit:10;stroke-opacity:1;stroke-dasharray:none" /><g
         transform="scale(10,10)"
         id="g2858"><text
           transform="matrix(0,1,1,0,513.8,110.816)"
           id="text2860"><tspan
             x="0"
             y="0"
             id="tspan2862"
             style="font-size:14px;font-variant:normal;font-weight:normal;writing-mode:lr-tb;fill:#000000;fill-opacity:1;fill-rule:nonzero;stroke:none;font-family:Helvetica;-inkscape-font-specification:Helvetica">1</tspan></text>
</g><path
         d="m 4600,1270 0,6220"
         id="path2864"
         style="fill:none;stroke:#000000;stroke-width:2.5;stroke-linecap:butt;stroke-linejoin:miter;stroke-miterlimit:10;stroke-opacity:1;stroke-dasharray:10, 20;stroke-dashoffset:0" /><path
         d="m 4600,1270 0,63 m 0,6157 0,-63"
         id="path2866"
         style="fill:none;stroke:#000000;stroke-width:10;stroke-linecap:butt;stroke-linejoin:miter;stroke-miterlimit:10;stroke-opacity:1;stroke-dasharray:none" /><g
         transform="scale(10,10)"
         id="g2868"><text
           transform="matrix(0,1,1,0,464.6,110.816)"
           id="text2870"><tspan
             x="0"
             y="0"
             id="tspan2872"
             style="font-size:14px;font-variant:normal;font-weight:normal;writing-mode:lr-tb;fill:#000000;fill-opacity:1;fill-rule:nonzero;stroke:none;font-family:Helvetica;-inkscape-font-specification:Helvetica">2</tspan></text>
</g><path
         d="m 4109,1270 0,6220"
         id="path2874"
         style="fill:none;stroke:#000000;stroke-width:2.5;stroke-linecap:butt;stroke-linejoin:miter;stroke-miterlimit:10;stroke-opacity:1;stroke-dasharray:10, 20;stroke-dashoffset:0" /><path
         d="m 4109,1270 0,63 m 0,6157 0,-63"
         id="path2876"
         style="fill:none;stroke:#000000;stroke-width:10;stroke-linecap:butt;stroke-linejoin:miter;stroke-miterlimit:10;stroke-opacity:1;stroke-dasharray:none" /><g
         transform="scale(10,10)"
         id="g2878"><text
           transform="matrix(0,1,1,0,415.5,110.816)"
           id="text2880"><tspan
             x="0"
             y="0"
             id="tspan2882"
             style="font-size:14px;font-variant:normal;font-weight:normal;writing-mode:lr-tb;fill:#000000;fill-opacity:1;fill-rule:nonzero;stroke:none;font-family:Helvetica;-inkscape-font-specification:Helvetica">3</tspan></text>
</g><path
         d="m 3617,1270 0,6220"
         id="path2884"
         style="fill:none;stroke:#000000;stroke-width:2.5;stroke-linecap:butt;stroke-linejoin:miter;stroke-miterlimit:10;stroke-opacity:1;stroke-dasharray:10, 20;stroke-dashoffset:0" /><path
         d="m 3617,1270 0,63 m 0,6157 0,-63"
         id="path2886"
         style="fill:none;stroke:#000000;stroke-width:10;stroke-linecap:butt;stroke-linejoin:miter;stroke-miterlimit:10;stroke-opacity:1;stroke-dasharray:none" /><g
         transform="scale(10,10)"
         id="g2888"><text
           transform="matrix(0,1,1,0,366.3,110.816)"
           id="text2890"><tspan
             x="0"
             y="0"
             id="tspan2892"
             style="font-size:14px;font-variant:normal;font-weight:normal;writing-mode:lr-tb;fill:#000000;fill-opacity:1;fill-rule:nonzero;stroke:none;font-family:Helvetica;-inkscape-font-specification:Helvetica">4</tspan></text>
</g><path
         d="m 3126,1270 0,6220"
         id="path2894"
         style="fill:none;stroke:#000000;stroke-width:2.5;stroke-linecap:butt;stroke-linejoin:miter;stroke-miterlimit:10;stroke-opacity:1;stroke-dasharray:10, 20;stroke-dashoffset:0" /><path
         d="m 3126,1270 0,63 m 0,6157 0,-63"
         id="path2896"
         style="fill:none;stroke:#000000;stroke-width:10;stroke-linecap:butt;stroke-linejoin:miter;stroke-miterlimit:10;stroke-opacity:1;stroke-dasharray:none" /><g
         transform="scale(10,10)"
         id="g2898"><text
           transform="matrix(0,1,1,0,317.2,110.816)"
           id="text2900"><tspan
             x="0"
             y="0"
             id="tspan2902"
             style="font-size:14px;font-variant:normal;font-weight:normal;writing-mode:lr-tb;fill:#000000;fill-opacity:1;fill-rule:nonzero;stroke:none;font-family:Helvetica;-inkscape-font-specification:Helvetica">5</tspan></text>
</g><path
         d="m 2634,1270 0,6220"
         id="path2904"
         style="fill:none;stroke:#000000;stroke-width:2.5;stroke-linecap:butt;stroke-linejoin:miter;stroke-miterlimit:10;stroke-opacity:1;stroke-dasharray:10, 20;stroke-dashoffset:0" /><path
         d="m 2634,1270 0,63 m 0,6157 0,-63"
         id="path2906"
         style="fill:none;stroke:#000000;stroke-width:10;stroke-linecap:butt;stroke-linejoin:miter;stroke-miterlimit:10;stroke-opacity:1;stroke-dasharray:none" /><g
         transform="scale(10,10)"
         id="g2908"><text
           transform="matrix(0,1,1,0,268,110.816)"
           id="text2910"><tspan
             x="0"
             y="0"
             id="tspan2912"
             style="font-size:14px;font-variant:normal;font-weight:normal;writing-mode:lr-tb;fill:#000000;fill-opacity:1;fill-rule:nonzero;stroke:none;font-family:Helvetica;-inkscape-font-specification:Helvetica">6</tspan></text>
</g><path
         d="m 2143,1270 0,6220"
         id="path2914"
         style="fill:none;stroke:#000000;stroke-width:2.5;stroke-linecap:butt;stroke-linejoin:miter;stroke-miterlimit:10;stroke-opacity:1;stroke-dasharray:10, 20;stroke-dashoffset:0" /><path
         d="m 2143,1270 0,63 m 0,6157 0,-63"
         id="path2916"
         style="fill:none;stroke:#000000;stroke-width:10;stroke-linecap:butt;stroke-linejoin:miter;stroke-miterlimit:10;stroke-opacity:1;stroke-dasharray:none" /><g
         transform="scale(10,10)"
         id="g2918"><text
           transform="matrix(0,1,1,0,218.9,110.816)"
           id="text2920"><tspan
             x="0"
             y="0"
             id="tspan2922"
             style="font-size:14px;font-variant:normal;font-weight:normal;writing-mode:lr-tb;fill:#000000;fill-opacity:1;fill-rule:nonzero;stroke:none;font-family:Helvetica;-inkscape-font-specification:Helvetica">7</tspan></text>
</g><path
         d="m 1651,1270 0,6220"
         id="path2924"
         style="fill:none;stroke:#000000;stroke-width:2.5;stroke-linecap:butt;stroke-linejoin:miter;stroke-miterlimit:10;stroke-opacity:1;stroke-dasharray:10, 20;stroke-dashoffset:0" /><path
         d="m 1651,1270 0,63 m 0,6157 0,-63"
         id="path2926"
         style="fill:none;stroke:#000000;stroke-width:10;stroke-linecap:butt;stroke-linejoin:miter;stroke-miterlimit:10;stroke-opacity:1;stroke-dasharray:none" /><g
         transform="scale(10,10)"
         id="g2928"><text
           transform="matrix(0,1,1,0,169.7,110.816)"
           id="text2930"><tspan
             x="0"
             y="0"
             id="tspan2932"
             style="font-size:14px;font-variant:normal;font-weight:normal;writing-mode:lr-tb;fill:#000000;fill-opacity:1;fill-rule:nonzero;stroke:none;font-family:Helvetica;-inkscape-font-specification:Helvetica">8</tspan></text>
</g><path
         d="m 1160,1270 0,3133 m 0,3003 0,84"
         id="path2934"
         style="fill:none;stroke:#000000;stroke-width:2.5;stroke-linecap:butt;stroke-linejoin:miter;stroke-miterlimit:10;stroke-opacity:1;stroke-dasharray:10, 20;stroke-dashoffset:0" /><path
         d="m 1160,1270 0,63 m 0,6157 0,-63"
         id="path2936"
         style="fill:none;stroke:#000000;stroke-width:10;stroke-linecap:butt;stroke-linejoin:miter;stroke-miterlimit:10;stroke-opacity:1;stroke-dasharray:none" /><g
         transform="scale(10,10)"
         id="g2938"><text
           transform="matrix(0,1,1,0,120.6,110.816)"
           id="text2940"><tspan
             x="0"
             y="0"
             id="tspan2942"
             style="font-size:14px;font-variant:normal;font-weight:normal;writing-mode:lr-tb;fill:#000000;fill-opacity:1;fill-rule:nonzero;stroke:none;font-family:Helvetica;-inkscape-font-specification:Helvetica">9</tspan></text>
</g><path
         d="m 668,1270 0,6220"
         id="path2944"
         style="fill:none;stroke:#000000;stroke-width:2.5;stroke-linecap:butt;stroke-linejoin:miter;stroke-miterlimit:10;stroke-opacity:1;stroke-dasharray:10, 20;stroke-dashoffset:0" /><path
         d="m 668,1270 0,63 m 0,6157 0,-63"
         id="path2946"
         style="fill:none;stroke:#000000;stroke-width:10;stroke-linecap:butt;stroke-linejoin:miter;stroke-miterlimit:10;stroke-opacity:1;stroke-dasharray:none" /><g
         transform="scale(10,10)"
         id="g2948"><text
           transform="matrix(0,1,1,0,71.4,103.0322)"
           id="text2950"><tspan
             x="0 7.7839999"
             y="0"
             id="tspan2952"
             style="font-size:14px;font-variant:normal;font-weight:normal;writing-mode:lr-tb;fill:#000000;fill-opacity:1;fill-rule:nonzero;stroke:none;font-family:Helvetica;-inkscape-font-specification:Helvetica">10</tspan></text>
</g><path
         d="m 5092,1270 -4424,0"
         id="path2954"
         style="fill:none;stroke:#000000;stroke-width:2.5;stroke-linecap:butt;stroke-linejoin:miter;stroke-miterlimit:10;stroke-opacity:1;stroke-dasharray:10, 20;stroke-dashoffset:0" /><path
         d="m 5092,1270 -63,0 m -4361,0 63,0"
         id="path2956"
         style="fill:none;stroke:#000000;stroke-width:10;stroke-linecap:butt;stroke-linejoin:miter;stroke-miterlimit:10;stroke-opacity:1;stroke-dasharray:none" /><g
         transform="scale(10,10)"
         id="g2958"><text
           transform="matrix(0,1,1,0,527.8,125.054)"
           id="text2960"><tspan
             x="0"
             y="0"
             id="tspan2962"
             style="font-size:14px;font-variant:normal;font-weight:normal;writing-mode:lr-tb;fill:#000000;fill-opacity:1;fill-rule:nonzero;stroke:none;font-family:Helvetica;-inkscape-font-specification:Helvetica">0</tspan></text>
</g><path
         d="m 5092,2307 -4424,0"
         id="path2964"
         style="fill:none;stroke:#000000;stroke-width:2.5;stroke-linecap:butt;stroke-linejoin:miter;stroke-miterlimit:10;stroke-opacity:1;stroke-dasharray:10, 20;stroke-dashoffset:0" /><path
         d="m 5092,2307 -63,0 m -4361,0 63,0"
         id="path2966"
         style="fill:none;stroke:#000000;stroke-width:10;stroke-linecap:butt;stroke-linejoin:miter;stroke-miterlimit:10;stroke-opacity:1;stroke-dasharray:none" /><g
         transform="scale(10,10)"
         id="g2968"><text
           transform="matrix(0,1,1,0,527.8,224.862)"
           id="text2970"><tspan
             x="0 7.7839999"
             y="0"
             id="tspan2972"
             style="font-size:14px;font-variant:normal;font-weight:normal;writing-mode:lr-tb;fill:#000000;fill-opacity:1;fill-rule:nonzero;stroke:none;font-family:Helvetica;-inkscape-font-specification:Helvetica">10</tspan></text>
</g><path
         d="m 5092,3343 -4424,0"
         id="path2974"
         style="fill:none;stroke:#000000;stroke-width:2.5;stroke-linecap:butt;stroke-linejoin:miter;stroke-miterlimit:10;stroke-opacity:1;stroke-dasharray:10, 20;stroke-dashoffset:0" /><path
         d="m 5092,3343 -63,0 m -4361,0 63,0"
         id="path2976"
         style="fill:none;stroke:#000000;stroke-width:10;stroke-linecap:butt;stroke-linejoin:miter;stroke-miterlimit:10;stroke-opacity:1;stroke-dasharray:none" /><g
         transform="scale(10,10)"
         id="g2978"><text
           transform="matrix(0,1,1,0,527.8,328.462)"
           id="text2980"><tspan
             x="0 7.7839999"
             y="0"
             id="tspan2982"
             style="font-size:14px;font-variant:normal;font-weight:normal;writing-mode:lr-tb;fill:#000000;fill-opacity:1;fill-rule:nonzero;stroke:none;font-family:Helvetica;-inkscape-font-specification:Helvetica">20</tspan></text>
</g><path
         d="m 5092,4380 -4424,0"
         id="path2984"
         style="fill:none;stroke:#000000;stroke-width:2.5;stroke-linecap:butt;stroke-linejoin:miter;stroke-miterlimit:10;stroke-opacity:1;stroke-dasharray:10, 20;stroke-dashoffset:0" /><path
         d="m 5092,4380 -63,0 m -4361,0 63,0"
         id="path2986"
         style="fill:none;stroke:#000000;stroke-width:10;stroke-linecap:butt;stroke-linejoin:miter;stroke-miterlimit:10;stroke-opacity:1;stroke-dasharray:none" /><g
         transform="scale(10,10)"
         id="g2988"><text
           transform="matrix(0,1,1,0,527.8,432.162)"
           id="text2990"><tspan
             x="0 7.7839999"
             y="0"
             id="tspan2992"
             style="font-size:14px;font-variant:normal;font-weight:normal;writing-mode:lr-tb;fill:#000000;fill-opacity:1;fill-rule:nonzero;stroke:none;font-family:Helvetica;-inkscape-font-specification:Helvetica">30</tspan></text>
</g><path
         d="m 5092,5417 -3521,0 m -840,0 -63,0"
         id="path2994"
         style="fill:none;stroke:#000000;stroke-width:2.5;stroke-linecap:butt;stroke-linejoin:miter;stroke-miterlimit:10;stroke-opacity:1;stroke-dasharray:10, 20;stroke-dashoffset:0" /><path
         d="m 5092,5417 -63,0 m -4361,0 63,0"
         id="path2996"
         style="fill:none;stroke:#000000;stroke-width:10;stroke-linecap:butt;stroke-linejoin:miter;stroke-miterlimit:10;stroke-opacity:1;stroke-dasharray:none" /><g
         transform="scale(10,10)"
         id="g2998"><text
           transform="matrix(0,1,1,0,527.8,535.862)"
           id="text3000"><tspan
             x="0 7.7839999"
             y="0"
             id="tspan3002"
             style="font-size:14px;font-variant:normal;font-weight:normal;writing-mode:lr-tb;fill:#000000;fill-opacity:1;fill-rule:nonzero;stroke:none;font-family:Helvetica;-inkscape-font-specification:Helvetica">40</tspan></text>
</g><path
         d="m 5092,6453 -3521,0 m -840,0 -63,0"
         id="path3004"
         style="fill:none;stroke:#000000;stroke-width:2.5;stroke-linecap:butt;stroke-linejoin:miter;stroke-miterlimit:10;stroke-opacity:1;stroke-dasharray:10, 20;stroke-dashoffset:0" /><path
         d="m 5092,6453 -63,0 m -4361,0 63,0"
         id="path3006"
         style="fill:none;stroke:#000000;stroke-width:10;stroke-linecap:butt;stroke-linejoin:miter;stroke-miterlimit:10;stroke-opacity:1;stroke-dasharray:none" /><g
         transform="scale(10,10)"
         id="g3008"><text
           transform="matrix(0,1,1,0,527.8,639.462)"
           id="text3010"><tspan
             x="0 7.7839999"
             y="0"
             id="tspan3012"
             style="font-size:14px;font-variant:normal;font-weight:normal;writing-mode:lr-tb;fill:#000000;fill-opacity:1;fill-rule:nonzero;stroke:none;font-family:Helvetica;-inkscape-font-specification:Helvetica">50</tspan></text>
</g><path
         d="m 5092,7490 -4424,0"
         id="path3014"
         style="fill:none;stroke:#000000;stroke-width:2.5;stroke-linecap:butt;stroke-linejoin:miter;stroke-miterlimit:10;stroke-opacity:1;stroke-dasharray:10, 20;stroke-dashoffset:0" /><path
         d="m 5092,7490 -63,0 m -4361,0 63,0"
         id="path3016"
         style="fill:none;stroke:#000000;stroke-width:10;stroke-linecap:butt;stroke-linejoin:miter;stroke-miterlimit:10;stroke-opacity:1;stroke-dasharray:none" /><g
         transform="scale(10,10)"
         id="g3018"><text
           transform="matrix(0,1,1,0,527.8,743.162)"
           id="text3020"><tspan
             x="0 7.7839999"
             y="0"
             id="tspan3022"
             style="font-size:14px;font-variant:normal;font-weight:normal;writing-mode:lr-tb;fill:#000000;fill-opacity:1;fill-rule:nonzero;stroke:none;font-family:Helvetica;-inkscape-font-specification:Helvetica">60</tspan></text>
</g><path
         d="m 668,1270 4424,0 0,6220 -4424,0 0,-6220 z"
         id="path3024"
         style="fill:none;stroke:#000000;stroke-width:10;stroke-linecap:butt;stroke-linejoin:miter;stroke-miterlimit:10;stroke-opacity:1;stroke-dasharray:none" /><g
         transform="scale(10,10)"
         id="g3026"><text
           transform="matrix(-1,0,0,1,306.676,82.6)"
           id="text3028"><tspan
             x="0 7 14.784 21.784 29.568001"
             y="0"
             id="tspan3030"
             style="font-size:14px;font-variant:normal;font-weight:normal;writing-mode:lr-tb;fill:#000000;fill-opacity:1;fill-rule:nonzero;stroke:none;font-family:Helvetica;-inkscape-font-specification:Helvetica">z_sph</tspan></text>
<text
           transform="matrix(0,1,1,0,548.8,419.324)"
           id="text3032"><tspan
             x="0 7 14.784 21.784 29.568001"
             y="0"
             id="tspan3034"
             style="font-size:14px;font-variant:normal;font-weight:normal;writing-mode:lr-tb;fill:#000000;fill-opacity:1;fill-rule:nonzero;stroke:none;font-family:Helvetica;-inkscape-font-specification:Helvetica">y_sph</tspan><tspan
             x="98.0625 102.7245 110.5085 114.4005 122.1845 126.8465 134.63049 142.41451 149.41451 157.1985 161.0905 164.9825 164.9825 164.9825 164.9825 168.8745 175.8745 183.65849 190.65849 198.4425 206.2265 210.8885 217.8885 225.6725 232.6725 240.4565 248.24049"
             y="-464.10001"
             id="tspan3036"
             style="font-size:14px;font-variant:normal;font-weight:normal;writing-mode:lr-tb;fill:#000000;fill-opacity:1;fill-rule:nonzero;stroke:none;font-family:Helvetica;-inkscape-font-specification:Helvetica">reference:     z_sph(y_sph)</tspan></text>
</g><path
         d="m 801,6923 0,399 m -132,-6029 2,24 4,23 5,24 7,23 8,24 9,23 11,24 13,23 14,24 16,23 17,23 18,24 20,23 22,24 23,23 24,24 26,23 28,24 28,23 31,24 32,23 33,24 35,23 36,23 38,24 39,23 41,24 42,23 44,24 45,23 47,24 48,23 49,24 52,23 52,23 54,24 56,23 57,24 58,23 60,24 62,23 63,24 64,23 66,24 68,23 69,23 70,24 72,23 73,24 75,23 76,24 78,23 79,24 81,23 82,24 84,23 85,24 87,23 88,23 90,24 91,23 92,24 94,23 96,24 97,23 98,24 100,23 102,24 103,23 104,23 106,24 88,21 -71,1 -67,0 -63,1 -60,1 -57,0 -53,1 -50,1 -46,0 -43,1 -40,1 -36,1 -32,0 -29,1 -26,1 -22,0 -19,1 -15,1 -12,0 -8,1 -5,1 -1,0 1,1 2,1 4,0 5,1 7,1 9,0 9,1 12,1 12,0"
         id="path3038"
         style="fill:none;stroke:#ff0000;stroke-width:5;stroke-linecap:butt;stroke-linejoin:miter;stroke-miterlimit:10;stroke-opacity:1;stroke-dasharray:none" /><path
         d="m 3902,3000 15,1 15,1 17,1 19,0 20,1 22,1 23,0 25,1 26,1 27,0 29,1 31,1 32,0 33,1 35,1 37,0 38,1 39,1 41,0 42,1 44,1 46,1 42,0 -29,7 -26,7 -22,7 -19,6 -16,7 -12,7 -8,7 -6,6 -1,7 1,7 2,7 3,6 6,7 6,7 9,6 9,7 11,7 13,7 14,6 16,7 17,7 18,7 12,5 -11,0 -8,1 -4,0 1,1 3,0 4,1 13,0 3,1 -3,2 0,1 2,2 2,1 0,2"
         id="path3040"
         style="fill:none;stroke:#ff0000;stroke-width:5;stroke-linecap:butt;stroke-linejoin:miter;stroke-miterlimit:10;stroke-opacity:1;stroke-dasharray:none" /><g
         transform="scale(10,10)"
         id="g3042"><text
           transform="matrix(0,1,1,0,98.7,550.846)"
           id="text3044"><tspan
             x="0 7.7839999 10.892 18.676001 25.676001 29.568001 33.459999 33.459999 33.459999 33.459999 37.352001 44.352001 52.136002 59.136002 66.919998 74.704002 79.365997 86.365997 94.150002 101.15 108.934 116.718"
             y="0"
             id="tspan3046"
             style="font-size:14px;font-variant:normal;font-weight:normal;writing-mode:lr-tb;fill:#000000;fill-opacity:1;fill-rule:nonzero;stroke:none;font-family:Helvetica;-inkscape-font-specification:Helvetica">hi_v:     z_sph(y_sph)</tspan></text>
</g><path
         d="m 941,6923 0,399 m -272,-6005 2,47 4,47 5,47 7,47 8,46 9,47 11,47 13,47 14,47 16,47 17,47 18,47 20,47 22,47 23,47 24,47 26,46 28,47 28,47 31,47 32,47 33,47 35,47 36,47 38,47 39,47 41,47 42,47 44,46 45,47 47,47 48,47 49,47 52,47 52,47 54,47 56,47 57,47 58,47 60,46 62,47 63,47 64,47 66,47 68,47 69,47 70,47 72,47 73,47 75,47 76,47 78,46 79,47 81,47 82,47 84,47 85,47 87,47 88,47 90,47 91,47 92,47 94,47 96,46 97,47 98,47 100,47 102,47 103,47 104,47 106,47 88,43 -71,12 -67,12 -63,12 -60,11 -57,12 -53,12 -50,12 -46,12 -43,12 -40,12 -36,11 -32,12 -29,12 -26,12 -22,12 -19,12 -15,11 -12,12 -8,12 -5,12 -1,12 1,12 2,11 4,12 5,12 7,12 9,12 9,12 12,12 12,11"
         id="path3048"
         style="fill:none;stroke:#00ff00;stroke-width:5;stroke-linecap:butt;stroke-linejoin:miter;stroke-miterlimit:10;stroke-opacity:1;stroke-dasharray:40, 20;stroke-dashoffset:0" /><path
         d="m 3902,5046 15,12 15,12 17,12 19,12 20,12 22,11 23,12 25,12 26,12 27,12 29,12 31,11 32,12 33,12 35,12 37,12 38,12 39,11 41,12 42,12 44,12 46,12 42,12 -29,18 -26,18 -22,17 -19,18 -16,18 -12,18 -8,17 -6,18 -1,18 1,18 2,17 3,18 6,18 6,18 9,17 9,18 11,18 13,18 14,17 16,18 17,18 18,18 12,16 -11,11 -8,12 -4,11 0,12 1,11 3,12 4,11 6,11 7,12 3,11 -3,9 0,10 2,9 2,10 0,311"
         id="path3050"
         style="fill:none;stroke:#00ff00;stroke-width:5;stroke-linecap:butt;stroke-linejoin:miter;stroke-miterlimit:10;stroke-opacity:1;stroke-dasharray:40, 20;stroke-dashoffset:0" /><g
         transform="scale(10,10)"
         id="g3052"><text
           transform="matrix(0,1,1,0,112.7,550.846)"
           id="text3054"><tspan
             x="0 3.108 10.892 18.676001 25.676001 29.568001 33.459999 33.459999 33.459999 33.459999 37.352001 44.352001 52.136002 59.136002 66.919998 74.704002 79.365997 86.365997 94.150002 101.15 108.934 116.718"
             y="0"
             id="tspan3056"
             style="font-size:14px;font-variant:normal;font-weight:normal;writing-mode:lr-tb;fill:#000000;fill-opacity:1;fill-rule:nonzero;stroke:none;font-family:Helvetica;-inkscape-font-specification:Helvetica">lo_v:     z_sph(y_sph)</tspan></text>
</g><path
         d="m 1081,6923 0,399 m -412,-6040 2,11 4,12 5,12 7,12 8,11 9,12 11,12 13,12 14,11 16,12 17,12 18,11 20,12 22,12 23,12 24,11 26,12 28,12 28,12 31,11 32,12 33,12 35,11 36,12 38,12 39,12 41,11 42,12 44,12 45,12 47,11 48,12 49,12 52,11 52,12 54,12 56,12 57,11 58,12 60,12 62,12 63,11 64,12 66,12 68,12 69,11 70,12 72,12 73,11 75,12 76,12 78,12 79,11 81,12 82,12 84,12 85,11 87,12 88,12 90,11 91,12 92,12 94,12 96,11 97,12 98,12 100,12 102,11 103,12 104,12 106,11 88,11 -71,0 -67,1 -63,0 -60,1 -110,0 -50,1 -46,0 -43,1 -40,0 -36,1 -61,0 -26,1 -22,0 -19,1 -27,0 -8,1 -5,0 -1,1 1,0 2,1 9,0 7,1 9,0 9,1 24,0"
         id="path3058"
         style="fill:none;stroke:#0000ff;stroke-width:5;stroke-linecap:butt;stroke-linejoin:miter;stroke-miterlimit:10;stroke-opacity:1;stroke-dasharray:20, 30;stroke-dashoffset:0" /><path
         d="m 3902,2137 15,1 15,0 17,1 19,0 20,1 45,0 25,1 26,0 27,1 60,0 32,1 33,0 35,1 75,0 39,1 41,0 42,1 44,0 46,1 42,0 -29,4 -26,4 -22,3 -19,4 -16,4 -12,3 -8,4 -6,4 -1,3 1,4 2,4 3,3 6,4 6,4 9,3 9,4 11,4 13,3 14,4 16,4 17,3 18,4 12,3 -11,-1 -8,0 -4,-1 0,-1 1,0 3,-1 4,-1 6,0 7,-1 3,0 -3,1 0,1 2,1 2,1"
         id="path3060"
         style="fill:none;stroke:#0000ff;stroke-width:5;stroke-linecap:butt;stroke-linejoin:miter;stroke-miterlimit:10;stroke-opacity:1;stroke-dasharray:20, 30;stroke-dashoffset:0" /><g
         transform="scale(10,10)"
         id="g3062"><text
           transform="matrix(0,1,1,0,126.7,537.616)"
           id="text3064"><tspan
             x="0 7.7839999 10.892 18.676001 23.337999 31.122 38.905998 42.798 46.689999 46.689999 46.689999 46.689999 50.582001 57.582001 65.365997 72.365997 80.150002 87.933998 92.596001 99.596001 107.38 114.38 122.164 129.948"
             y="0"
             id="tspan3066"
             style="font-size:14px;font-variant:normal;font-weight:normal;writing-mode:lr-tb;fill:#000000;fill-opacity:1;fill-rule:nonzero;stroke:none;font-family:Helvetica;-inkscape-font-specification:Helvetica">hi_rho:     z_sph(y_sph)</tspan></text>
</g><path
         d="m 1221,6923 0,399 m -551,-6018 4,34 8,34 11,33 14,34 17,34 20,34 23,34 26,34 29,34 33,33 35,34 39,34 42,34 44,34 48,34 51,34 54,33 57,34 61,34 63,34 66,34 70,34 72,34 76,33 79,34 81,34 85,34 88,34 91,34 94,34 98,33 100,34 103,34 107,34 109,34 113,34 116,34 119,33 122,34 125,34 128,34 131,34 134,34 137,34 141,33 143,34 147,34 150,34 152,34 30,18 -93,1 -86,2 -79,1 -71,2 -65,1 -57,2 -50,1 -43,2 -36,1 -28,2 -21,1 -14,2 -7,1 0,2 3,1 6,2 10,1 12,2 16,1 18,2 22,1 25,2 28,1 31,2 34,1 37,2 40,1 44,2 46,1 50,2 52,1 56,2 59,1 62,2 33,3 -38,10 -31,10 -24,10 -17,10 -9,10 -3,10 2,10 6,10 8,10 11,10 15,10 17,10 21,10 24,10 27,10 -12,2 -8,1"
         id="path3068"
         style="fill:none;stroke:#ff00ff;stroke-width:5;stroke-linecap:butt;stroke-linejoin:miter;stroke-miterlimit:10;stroke-opacity:1;stroke-dasharray:10, 15;stroke-dashoffset:0" /><path
         d="m 4579,3188 -2,2 2,1 6,1 9,2 4,1 -3,3 2,3 3,2 0,4"
         id="path3070"
         style="fill:none;stroke:#ff00ff;stroke-width:5;stroke-linecap:butt;stroke-linejoin:miter;stroke-miterlimit:10;stroke-opacity:1;stroke-dasharray:10, 15;stroke-dashoffset:0" /><g
         transform="scale(10,10)"
         id="g3072"><text
           transform="matrix(0,1,1,0,140.7,522.832)"
           id="text3074"><tspan
             x="0 7.7839999 10.892 18.676001 23.337999 31.122 38.905998 46.689999 53.689999 57.582001 61.473999 61.473999 61.473999 61.473999 65.365997 72.365997 80.150002 87.150002 94.933998 102.718 107.38 114.38 122.164 129.164 136.948 144.73199"
             y="0"
             id="tspan3076"
             style="font-size:14px;font-variant:normal;font-weight:normal;writing-mode:lr-tb;fill:#000000;fill-opacity:1;fill-rule:nonzero;stroke:none;font-family:Helvetica;-inkscape-font-specification:Helvetica">hi_rho_v:     z_sph(y_sph)</tspan></text>
</g><path
         d="m 1361,6923 0,399 m -691,-5984 4,67 8,68 11,68 14,68 17,67 20,68 23,68 26,67 29,68 33,68 35,68 39,67 42,68 44,68 48,67 51,68 54,68 57,68 61,67 63,68 66,68 70,67 72,68 76,68 79,68 81,67 85,68 88,68 91,67 94,68 98,68 100,68 103,67 107,68 109,68 113,67 116,68 119,68 122,68 125,67 128,68 131,68 134,67 137,68 141,68 143,68 147,67 150,68 152,68 30,45 -93,21 -86,22 -79,21 -71,22 -65,21 -57,22 -50,22 -43,21 -36,22 -28,21 -21,22 -14,21 -7,22 0,21 3,22 6,21 10,22 12,21 16,22 18,21 22,22 25,21 28,22 31,21 34,22 37,21 40,22 44,21 46,22 50,21 52,22 56,21 59,22 62,21 33,24 -38,28 -31,28 -24,28 -17,29 -9,28 -3,28 2,28 6,28 8,28 11,29 15,28 17,28 21,28 24,28 27,28 -12,21 -8,19"
         id="path3078"
         style="fill:none;stroke:#00ffff;stroke-width:5;stroke-linecap:butt;stroke-linejoin:miter;stroke-miterlimit:10;stroke-opacity:1;stroke-dasharray:60, 20, 10, 20;stroke-dashoffset:0" /><path
         d="m 4579,5918 -2,20 2,19 6,20 9,19 4,19 -3,16 2,17 3,16 0,916"
         id="path3080"
         style="fill:none;stroke:#00ffff;stroke-width:5;stroke-linecap:butt;stroke-linejoin:miter;stroke-miterlimit:10;stroke-opacity:1;stroke-dasharray:60, 20, 10, 20;stroke-dashoffset:0" /><g
         transform="scale(10,10)"
         id="g3082"><text
           transform="matrix(0,1,1,0,154.7,504.157)"
           id="text3084"><tspan
             x="0 7.7839999 10.892 18.676001 23.337999 31.122 38.905998 46.689999 49.798 57.582001 65.365997 72.365997 76.258003 80.150002 80.150002 80.150002 80.150002 84.042 91.042 98.825996 105.826 113.61 121.394 126.056 133.056 140.84 147.84 155.62399 163.408"
             y="0"
             id="tspan3086"
             style="font-size:14px;font-variant:normal;font-weight:normal;writing-mode:lr-tb;fill:#000000;fill-opacity:1;fill-rule:nonzero;stroke:none;font-family:Helvetica;-inkscape-font-specification:Helvetica">hi_rh0_lo_v:     z_sph(y_sph)</tspan></text>
</g><path
         d="m 1501,6923 0,399 m -831,-6035 4,17 8,17 11,17 14,17 17,17 20,17 23,16 26,17 29,17 33,17 35,17 39,17 42,17 44,17 48,17 51,17 54,17 57,17 61,17 63,17 66,16 70,17 72,17 76,17 79,17 81,17 85,17 88,17 91,17 94,17 98,17 100,17 103,17 107,17 109,16 113,17 116,17 119,17 122,17 125,17 128,17 131,17 134,17 137,17 141,17 143,17 147,17 150,17 152,16 30,9 -93,1 -86,1 -79,0 -71,1 -65,1 -57,0 -50,1 -43,1 -36,0 -28,1 -21,1 -14,1 -7,0 0,1 3,1 6,0 10,1 12,1 16,0 18,1 22,1 25,0 28,1 31,1 34,0 37,1 40,1 44,0 46,1 50,1 52,1 56,0 59,1 62,1 33,2 -38,5 -31,5 -24,5 -17,6 -9,5 -3,5 2,5 6,6 8,5 11,5 15,6 17,5 21,5 24,5 27,6 -12,-1 -8,0"
         id="path3088"
         style="fill:none;stroke:#ffff00;stroke-width:5;stroke-linecap:butt;stroke-linejoin:miter;stroke-miterlimit:10;stroke-opacity:1;stroke-dasharray:30, 30, 10, 30;stroke-dashoffset:0" /><path
         d="m 4579,2229 -2,-1 2,-1 6,-1 9,-1 4,0 -3,1 2,2 3,0"
         id="path3090"
         style="fill:none;stroke:#ffff00;stroke-width:5;stroke-linecap:butt;stroke-linejoin:miter;stroke-miterlimit:10;stroke-opacity:1;stroke-dasharray:30, 30, 10, 30;stroke-dashoffset:0" /><path
         d="m 668,1270 4424,0 0,6220 -4424,0 0,-6220 z"
         id="path3092"
         style="fill:none;stroke:#000000;stroke-width:10;stroke-linecap:butt;stroke-linejoin:miter;stroke-miterlimit:10;stroke-opacity:1;stroke-dasharray:none" /></g></g></svg>