<?xml version="1.0" encoding="UTF-8" standalone="no"?>
<!-- Created with Inkscape (http://www.inkscape.org/) -->

<svg
   xmlns:svg="http://www.w3.org/2000/svg"
   xmlns="http://www.w3.org/2000/svg"
   version="1.1"
   width="1052.5"
   height="743.75"
   id="svg3136"
   xml:space="preserve"><defs
     id="defs3140"><clipPath
       id="clipPath3148"><path
         d="M 0,0 595,0 595,842 0,842 0,0 z"
         id="path3150" /></clipPath></defs><g
     transform="matrix(0,1.25,1.25,0,0,0)"
     clip-path="url(#clipPath3148)"
     id="g3146"><g
       transform="scale(0.1,0.1)"
       id="g3152"><path
         d="m 5092,1270 0,6220"
         id="path3154"
         style="fill:none;stroke:#000000;stroke-width:2.5;stroke-linecap:butt;stroke-linejoin:miter;stroke-miterlimit:10;stroke-opacity:1;stroke-dasharray:10, 20;stroke-dashoffset:0" /><path
         d="m 5092,1270 0,63 m 0,6157 0,-63"
         id="path3156"
         style="fill:none;stroke:#000000;stroke-width:10;stroke-linecap:butt;stroke-linejoin:miter;stroke-miterlimit:10;stroke-opacity:1;stroke-dasharray:none" /><g
         transform="scale(10,10)"
         id="g3158"><text
           transform="matrix(0,1,1,0,513.8,110.816)"
           id="text3160"><tspan
             x="0"
             y="0"
             id="tspan3162"
             style="font-size:14px;font-variant:normal;font-weight:normal;writing-mode:lr-tb;fill:#000000;fill-opacity:1;fill-rule:nonzero;stroke:none;font-family:Helvetica;-inkscape-font-specification:Helvetica">1</tspan></text>
</g><path
         d="m 4600,1270 0,6220"
         id="path3164"
         style="fill:none;stroke:#000000;stroke-width:2.5;stroke-linecap:butt;stroke-linejoin:miter;stroke-miterlimit:10;stroke-opacity:1;stroke-dasharray:10, 20;stroke-dashoffset:0" /><path
         d="m 4600,1270 0,63 m 0,6157 0,-63"
         id="path3166"
         style="fill:none;stroke:#000000;stroke-width:10;stroke-linecap:butt;stroke-linejoin:miter;stroke-miterlimit:10;stroke-opacity:1;stroke-dasharray:none" /><g
         transform="scale(10,10)"
         id="g3168"><text
           transform="matrix(0,1,1,0,464.6,110.816)"
           id="text3170"><tspan
             x="0"
             y="0"
             id="tspan3172"
             style="font-size:14px;font-variant:normal;font-weight:normal;writing-mode:lr-tb;fill:#000000;fill-opacity:1;fill-rule:nonzero;stroke:none;font-family:Helvetica;-inkscape-font-specification:Helvetica">2</tspan></text>
</g><path
         d="m 4109,1270 0,6220"
         id="path3174"
         style="fill:none;stroke:#000000;stroke-width:2.5;stroke-linecap:butt;stroke-linejoin:miter;stroke-miterlimit:10;stroke-opacity:1;stroke-dasharray:10, 20;stroke-dashoffset:0" /><path
         d="m 4109,1270 0,63 m 0,6157 0,-63"
         id="path3176"
         style="fill:none;stroke:#000000;stroke-width:10;stroke-linecap:butt;stroke-linejoin:miter;stroke-miterlimit:10;stroke-opacity:1;stroke-dasharray:none" /><g
         transform="scale(10,10)"
         id="g3178"><text
           transform="matrix(0,1,1,0,415.5,110.816)"
           id="text3180"><tspan
             x="0"
             y="0"
             id="tspan3182"
             style="font-size:14px;font-variant:normal;font-weight:normal;writing-mode:lr-tb;fill:#000000;fill-opacity:1;fill-rule:nonzero;stroke:none;font-family:Helvetica;-inkscape-font-specification:Helvetica">3</tspan></text>
</g><path
         d="m 3617,1270 0,6220"
         id="path3184"
         style="fill:none;stroke:#000000;stroke-width:2.5;stroke-linecap:butt;stroke-linejoin:miter;stroke-miterlimit:10;stroke-opacity:1;stroke-dasharray:10, 20;stroke-dashoffset:0" /><path
         d="m 3617,1270 0,63 m 0,6157 0,-63"
         id="path3186"
         style="fill:none;stroke:#000000;stroke-width:10;stroke-linecap:butt;stroke-linejoin:miter;stroke-miterlimit:10;stroke-opacity:1;stroke-dasharray:none" /><g
         transform="scale(10,10)"
         id="g3188"><text
           transform="matrix(0,1,1,0,366.3,110.816)"
           id="text3190"><tspan
             x="0"
             y="0"
             id="tspan3192"
             style="font-size:14px;font-variant:normal;font-weight:normal;writing-mode:lr-tb;fill:#000000;fill-opacity:1;fill-rule:nonzero;stroke:none;font-family:Helvetica;-inkscape-font-specification:Helvetica">4</tspan></text>
</g><path
         d="m 3126,1270 0,6220"
         id="path3194"
         style="fill:none;stroke:#000000;stroke-width:2.5;stroke-linecap:butt;stroke-linejoin:miter;stroke-miterlimit:10;stroke-opacity:1;stroke-dasharray:10, 20;stroke-dashoffset:0" /><path
         d="m 3126,1270 0,63 m 0,6157 0,-63"
         id="path3196"
         style="fill:none;stroke:#000000;stroke-width:10;stroke-linecap:butt;stroke-linejoin:miter;stroke-miterlimit:10;stroke-opacity:1;stroke-dasharray:none" /><g
         transform="scale(10,10)"
         id="g3198"><text
           transform="matrix(0,1,1,0,317.2,110.816)"
           id="text3200"><tspan
             x="0"
             y="0"
             id="tspan3202"
             style="font-size:14px;font-variant:normal;font-weight:normal;writing-mode:lr-tb;fill:#000000;fill-opacity:1;fill-rule:nonzero;stroke:none;font-family:Helvetica;-inkscape-font-specification:Helvetica">5</tspan></text>
</g><path
         d="m 2634,1270 0,6220"
         id="path3204"
         style="fill:none;stroke:#000000;stroke-width:2.5;stroke-linecap:butt;stroke-linejoin:miter;stroke-miterlimit:10;stroke-opacity:1;stroke-dasharray:10, 20;stroke-dashoffset:0" /><path
         d="m 2634,1270 0,63 m 0,6157 0,-63"
         id="path3206"
         style="fill:none;stroke:#000000;stroke-width:10;stroke-linecap:butt;stroke-linejoin:miter;stroke-miterlimit:10;stroke-opacity:1;stroke-dasharray:none" /><g
         transform="scale(10,10)"
         id="g3208"><text
           transform="matrix(0,1,1,0,268,110.816)"
           id="text3210"><tspan
             x="0"
             y="0"
             id="tspan3212"
             style="font-size:14px;font-variant:normal;font-weight:normal;writing-mode:lr-tb;fill:#000000;fill-opacity:1;fill-rule:nonzero;stroke:none;font-family:Helvetica;-inkscape-font-specification:Helvetica">6</tspan></text>
</g><path
         d="m 2143,1270 0,6220"
         id="path3214"
         style="fill:none;stroke:#000000;stroke-width:2.5;stroke-linecap:butt;stroke-linejoin:miter;stroke-miterlimit:10;stroke-opacity:1;stroke-dasharray:10, 20;stroke-dashoffset:0" /><path
         d="m 2143,1270 0,63 m 0,6157 0,-63"
         id="path3216"
         style="fill:none;stroke:#000000;stroke-width:10;stroke-linecap:butt;stroke-linejoin:miter;stroke-miterlimit:10;stroke-opacity:1;stroke-dasharray:none" /><g
         transform="scale(10,10)"
         id="g3218"><text
           transform="matrix(0,1,1,0,218.9,110.816)"
           id="text3220"><tspan
             x="0"
             y="0"
             id="tspan3222"
             style="font-size:14px;font-variant:normal;font-weight:normal;writing-mode:lr-tb;fill:#000000;fill-opacity:1;fill-rule:nonzero;stroke:none;font-family:Helvetica;-inkscape-font-specification:Helvetica">7</tspan></text>
</g><path
         d="m 1651,1270 0,6220"
         id="path3224"
         style="fill:none;stroke:#000000;stroke-width:2.5;stroke-linecap:butt;stroke-linejoin:miter;stroke-miterlimit:10;stroke-opacity:1;stroke-dasharray:10, 20;stroke-dashoffset:0" /><path
         d="m 1651,1270 0,63 m 0,6157 0,-63"
         id="path3226"
         style="fill:none;stroke:#000000;stroke-width:10;stroke-linecap:butt;stroke-linejoin:miter;stroke-miterlimit:10;stroke-opacity:1;stroke-dasharray:none" /><g
         transform="scale(10,10)"
         id="g3228"><text
           transform="matrix(0,1,1,0,169.7,110.816)"
           id="text3230"><tspan
             x="0"
             y="0"
             id="tspan3232"
             style="font-size:14px;font-variant:normal;font-weight:normal;writing-mode:lr-tb;fill:#000000;fill-opacity:1;fill-rule:nonzero;stroke:none;font-family:Helvetica;-inkscape-font-specification:Helvetica">8</tspan></text>
</g><path
         d="m 1160,1270 0,6220"
         id="path3234"
         style="fill:none;stroke:#000000;stroke-width:2.5;stroke-linecap:butt;stroke-linejoin:miter;stroke-miterlimit:10;stroke-opacity:1;stroke-dasharray:10, 20;stroke-dashoffset:0" /><path
         d="m 1160,1270 0,63 m 0,6157 0,-63"
         id="path3236"
         style="fill:none;stroke:#000000;stroke-width:10;stroke-linecap:butt;stroke-linejoin:miter;stroke-miterlimit:10;stroke-opacity:1;stroke-dasharray:none" /><g
         transform="scale(10,10)"
         id="g3238"><text
           transform="matrix(0,1,1,0,120.6,110.816)"
           id="text3240"><tspan
             x="0"
             y="0"
             id="tspan3242"
             style="font-size:14px;font-variant:normal;font-weight:normal;writing-mode:lr-tb;fill:#000000;fill-opacity:1;fill-rule:nonzero;stroke:none;font-family:Helvetica;-inkscape-font-specification:Helvetica">9</tspan></text>
</g><path
         d="m 668,1270 0,6220"
         id="path3244"
         style="fill:none;stroke:#000000;stroke-width:2.5;stroke-linecap:butt;stroke-linejoin:miter;stroke-miterlimit:10;stroke-opacity:1;stroke-dasharray:10, 20;stroke-dashoffset:0" /><path
         d="m 668,1270 0,63 m 0,6157 0,-63"
         id="path3246"
         style="fill:none;stroke:#000000;stroke-width:10;stroke-linecap:butt;stroke-linejoin:miter;stroke-miterlimit:10;stroke-opacity:1;stroke-dasharray:none" /><g
         transform="scale(10,10)"
         id="g3248"><text
           transform="matrix(0,1,1,0,71.4,103.0322)"
           id="text3250"><tspan
             x="0 7.7839999"
             y="0"
             id="tspan3252"
             style="font-size:14px;font-variant:normal;font-weight:normal;writing-mode:lr-tb;fill:#000000;fill-opacity:1;fill-rule:nonzero;stroke:none;font-family:Helvetica;-inkscape-font-specification:Helvetica">10</tspan></text>
</g><path
         d="m 5092,1270 -4424,0"
         id="path3254"
         style="fill:none;stroke:#000000;stroke-width:2.5;stroke-linecap:butt;stroke-linejoin:miter;stroke-miterlimit:10;stroke-opacity:1;stroke-dasharray:10, 20;stroke-dashoffset:0" /><path
         d="m 5092,1270 -63,0 m -4361,0 63,0"
         id="path3256"
         style="fill:none;stroke:#000000;stroke-width:10;stroke-linecap:butt;stroke-linejoin:miter;stroke-miterlimit:10;stroke-opacity:1;stroke-dasharray:none" /><g
         transform="scale(10,10)"
         id="g3258"><text
           transform="matrix(0,1,1,0,527.8,125.054)"
           id="text3260"><tspan
             x="0"
             y="0"
             id="tspan3262"
             style="font-size:14px;font-variant:normal;font-weight:normal;writing-mode:lr-tb;fill:#000000;fill-opacity:1;fill-rule:nonzero;stroke:none;font-family:Helvetica;-inkscape-font-specification:Helvetica">0</tspan></text>
</g><path
         d="m 5092,1892 -4424,0"
         id="path3264"
         style="fill:none;stroke:#000000;stroke-width:2.5;stroke-linecap:butt;stroke-linejoin:miter;stroke-miterlimit:10;stroke-opacity:1;stroke-dasharray:10, 20;stroke-dashoffset:0" /><path
         d="m 5092,1892 -63,0 m -4361,0 63,0"
         id="path3266"
         style="fill:none;stroke:#000000;stroke-width:10;stroke-linecap:butt;stroke-linejoin:miter;stroke-miterlimit:10;stroke-opacity:1;stroke-dasharray:none" /><g
         transform="scale(10,10)"
         id="g3268"><text
           transform="matrix(0,1,1,0,527.8,187.254)"
           id="text3270"><tspan
             x="0"
             y="0"
             id="tspan3272"
             style="font-size:14px;font-variant:normal;font-weight:normal;writing-mode:lr-tb;fill:#000000;fill-opacity:1;fill-rule:nonzero;stroke:none;font-family:Helvetica;-inkscape-font-specification:Helvetica">2</tspan></text>
</g><path
         d="m 5092,2514 -4424,0"
         id="path3274"
         style="fill:none;stroke:#000000;stroke-width:2.5;stroke-linecap:butt;stroke-linejoin:miter;stroke-miterlimit:10;stroke-opacity:1;stroke-dasharray:10, 20;stroke-dashoffset:0" /><path
         d="m 5092,2514 -63,0 m -4361,0 63,0"
         id="path3276"
         style="fill:none;stroke:#000000;stroke-width:10;stroke-linecap:butt;stroke-linejoin:miter;stroke-miterlimit:10;stroke-opacity:1;stroke-dasharray:none" /><g
         transform="scale(10,10)"
         id="g3278"><text
           transform="matrix(0,1,1,0,527.8,249.454)"
           id="text3280"><tspan
             x="0"
             y="0"
             id="tspan3282"
             style="font-size:14px;font-variant:normal;font-weight:normal;writing-mode:lr-tb;fill:#000000;fill-opacity:1;fill-rule:nonzero;stroke:none;font-family:Helvetica;-inkscape-font-specification:Helvetica">4</tspan></text>
</g><path
         d="m 5092,3136 -4424,0"
         id="path3284"
         style="fill:none;stroke:#000000;stroke-width:2.5;stroke-linecap:butt;stroke-linejoin:miter;stroke-miterlimit:10;stroke-opacity:1;stroke-dasharray:10, 20;stroke-dashoffset:0" /><path
         d="m 5092,3136 -63,0 m -4361,0 63,0"
         id="path3286"
         style="fill:none;stroke:#000000;stroke-width:10;stroke-linecap:butt;stroke-linejoin:miter;stroke-miterlimit:10;stroke-opacity:1;stroke-dasharray:none" /><g
         transform="scale(10,10)"
         id="g3288"><text
           transform="matrix(0,1,1,0,527.8,311.654)"
           id="text3290"><tspan
             x="0"
             y="0"
             id="tspan3292"
             style="font-size:14px;font-variant:normal;font-weight:normal;writing-mode:lr-tb;fill:#000000;fill-opacity:1;fill-rule:nonzero;stroke:none;font-family:Helvetica;-inkscape-font-specification:Helvetica">6</tspan></text>
</g><path
         d="m 5092,3758 -4424,0"
         id="path3294"
         style="fill:none;stroke:#000000;stroke-width:2.5;stroke-linecap:butt;stroke-linejoin:miter;stroke-miterlimit:10;stroke-opacity:1;stroke-dasharray:10, 20;stroke-dashoffset:0" /><path
         d="m 5092,3758 -63,0 m -4361,0 63,0"
         id="path3296"
         style="fill:none;stroke:#000000;stroke-width:10;stroke-linecap:butt;stroke-linejoin:miter;stroke-miterlimit:10;stroke-opacity:1;stroke-dasharray:none" /><g
         transform="scale(10,10)"
         id="g3298"><text
           transform="matrix(0,1,1,0,527.8,373.854)"
           id="text3300"><tspan
             x="0"
             y="0"
             id="tspan3302"
             style="font-size:14px;font-variant:normal;font-weight:normal;writing-mode:lr-tb;fill:#000000;fill-opacity:1;fill-rule:nonzero;stroke:none;font-family:Helvetica;-inkscape-font-specification:Helvetica">8</tspan></text>
</g><path
         d="m 5092,4380 -4424,0"
         id="path3304"
         style="fill:none;stroke:#000000;stroke-width:2.5;stroke-linecap:butt;stroke-linejoin:miter;stroke-miterlimit:10;stroke-opacity:1;stroke-dasharray:10, 20;stroke-dashoffset:0" /><path
         d="m 5092,4380 -63,0 m -4361,0 63,0"
         id="path3306"
         style="fill:none;stroke:#000000;stroke-width:10;stroke-linecap:butt;stroke-linejoin:miter;stroke-miterlimit:10;stroke-opacity:1;stroke-dasharray:none" /><g
         transform="scale(10,10)"
         id="g3308"><text
           transform="matrix(0,1,1,0,527.8,432.162)"
           id="text3310"><tspan
             x="0 7.7839999"
             y="0"
             id="tspan3312"
             style="font-size:14px;font-variant:normal;font-weight:normal;writing-mode:lr-tb;fill:#000000;fill-opacity:1;fill-rule:nonzero;stroke:none;font-family:Helvetica;-inkscape-font-specification:Helvetica">10</tspan></text>
</g><path
         d="m 5092,5002 -4424,0"
         id="path3314"
         style="fill:none;stroke:#000000;stroke-width:2.5;stroke-linecap:butt;stroke-linejoin:miter;stroke-miterlimit:10;stroke-opacity:1;stroke-dasharray:10, 20;stroke-dashoffset:0" /><path
         d="m 5092,5002 -63,0 m -4361,0 63,0"
         id="path3316"
         style="fill:none;stroke:#000000;stroke-width:10;stroke-linecap:butt;stroke-linejoin:miter;stroke-miterlimit:10;stroke-opacity:1;stroke-dasharray:none" /><g
         transform="scale(10,10)"
         id="g3318"><text
           transform="matrix(0,1,1,0,527.8,494.362)"
           id="text3320"><tspan
             x="0 7.7839999"
             y="0"
             id="tspan3322"
             style="font-size:14px;font-variant:normal;font-weight:normal;writing-mode:lr-tb;fill:#000000;fill-opacity:1;fill-rule:nonzero;stroke:none;font-family:Helvetica;-inkscape-font-specification:Helvetica">12</tspan></text>
</g><path
         d="m 5092,5624 -4221,0 m -140,0 -63,0"
         id="path3324"
         style="fill:none;stroke:#000000;stroke-width:2.5;stroke-linecap:butt;stroke-linejoin:miter;stroke-miterlimit:10;stroke-opacity:1;stroke-dasharray:10, 20;stroke-dashoffset:0" /><path
         d="m 5092,5624 -63,0 m -4361,0 63,0"
         id="path3326"
         style="fill:none;stroke:#000000;stroke-width:10;stroke-linecap:butt;stroke-linejoin:miter;stroke-miterlimit:10;stroke-opacity:1;stroke-dasharray:none" /><g
         transform="scale(10,10)"
         id="g3328"><text
           transform="matrix(0,1,1,0,527.8,556.562)"
           id="text3330"><tspan
             x="0 7.7839999"
             y="0"
             id="tspan3332"
             style="font-size:14px;font-variant:normal;font-weight:normal;writing-mode:lr-tb;fill:#000000;fill-opacity:1;fill-rule:nonzero;stroke:none;font-family:Helvetica;-inkscape-font-specification:Helvetica">14</tspan></text>
</g><path
         d="m 5092,6246 -4221,0 m -140,0 -63,0"
         id="path3334"
         style="fill:none;stroke:#000000;stroke-width:2.5;stroke-linecap:butt;stroke-linejoin:miter;stroke-miterlimit:10;stroke-opacity:1;stroke-dasharray:10, 20;stroke-dashoffset:0" /><path
         d="m 5092,6246 -63,0 m -4361,0 63,0"
         id="path3336"
         style="fill:none;stroke:#000000;stroke-width:10;stroke-linecap:butt;stroke-linejoin:miter;stroke-miterlimit:10;stroke-opacity:1;stroke-dasharray:none" /><g
         transform="scale(10,10)"
         id="g3338"><text
           transform="matrix(0,1,1,0,527.8,618.762)"
           id="text3340"><tspan
             x="0 7.7839999"
             y="0"
             id="tspan3342"
             style="font-size:14px;font-variant:normal;font-weight:normal;writing-mode:lr-tb;fill:#000000;fill-opacity:1;fill-rule:nonzero;stroke:none;font-family:Helvetica;-inkscape-font-specification:Helvetica">16</tspan></text>
</g><path
         d="m 5092,6868 -4221,0 m -140,0 -63,0"
         id="path3344"
         style="fill:none;stroke:#000000;stroke-width:2.5;stroke-linecap:butt;stroke-linejoin:miter;stroke-miterlimit:10;stroke-opacity:1;stroke-dasharray:10, 20;stroke-dashoffset:0" /><path
         d="m 5092,6868 -63,0 m -4361,0 63,0"
         id="path3346"
         style="fill:none;stroke:#000000;stroke-width:10;stroke-linecap:butt;stroke-linejoin:miter;stroke-miterlimit:10;stroke-opacity:1;stroke-dasharray:none" /><g
         transform="scale(10,10)"
         id="g3348"><text
           transform="matrix(0,1,1,0,527.8,680.962)"
           id="text3350"><tspan
             x="0 7.7839999"
             y="0"
             id="tspan3352"
             style="font-size:14px;font-variant:normal;font-weight:normal;writing-mode:lr-tb;fill:#000000;fill-opacity:1;fill-rule:nonzero;stroke:none;font-family:Helvetica;-inkscape-font-specification:Helvetica">18</tspan></text>
</g><path
         d="m 5092,7490 -4424,0"
         id="path3354"
         style="fill:none;stroke:#000000;stroke-width:2.5;stroke-linecap:butt;stroke-linejoin:miter;stroke-miterlimit:10;stroke-opacity:1;stroke-dasharray:10, 20;stroke-dashoffset:0" /><path
         d="m 5092,7490 -63,0 m -4361,0 63,0"
         id="path3356"
         style="fill:none;stroke:#000000;stroke-width:10;stroke-linecap:butt;stroke-linejoin:miter;stroke-miterlimit:10;stroke-opacity:1;stroke-dasharray:none" /><g
         transform="scale(10,10)"
         id="g3358"><text
           transform="matrix(0,1,1,0,527.8,743.162)"
           id="text3360"><tspan
             x="0 7.7839999"
             y="0"
             id="tspan3362"
             style="font-size:14px;font-variant:normal;font-weight:normal;writing-mode:lr-tb;fill:#000000;fill-opacity:1;fill-rule:nonzero;stroke:none;font-family:Helvetica;-inkscape-font-specification:Helvetica">20</tspan></text>
</g><path
         d="m 668,1270 4424,0 0,6220 -4424,0 0,-6220 z"
         id="path3364"
         style="fill:none;stroke:#000000;stroke-width:10;stroke-linecap:butt;stroke-linejoin:miter;stroke-miterlimit:10;stroke-opacity:1;stroke-dasharray:none" /><g
         transform="scale(10,10)"
         id="g3366"><text
           transform="matrix(-1,0,0,1,306.676,82.6)"
           id="text3368"><tspan
             x="0 7 14.784 21.784 29.568001"
             y="0"
             id="tspan3370"
             style="font-size:14px;font-variant:normal;font-weight:normal;writing-mode:lr-tb;fill:#000000;fill-opacity:1;fill-rule:nonzero;stroke:none;font-family:Helvetica;-inkscape-font-specification:Helvetica">z_sph</tspan></text>
<text
           transform="matrix(0,1,1,0,548.8,419.324)"
           id="text3372"><tspan
             x="0 7 14.784 21.784 29.568001"
             y="0"
             id="tspan3374"
             style="font-size:14px;font-variant:normal;font-weight:normal;writing-mode:lr-tb;fill:#000000;fill-opacity:1;fill-rule:nonzero;stroke:none;font-family:Helvetica;-inkscape-font-specification:Helvetica">y_sph</tspan><tspan
             x="164.981 164.981 164.981 164.981 168.873 175.873 183.657 190.657 198.44099 206.22501 210.88699 217.88699 225.67101 232.67101 240.455 248.239"
             y="-464.10001"
             id="tspan3376"
             style="font-size:14px;font-variant:normal;font-weight:normal;writing-mode:lr-tb;fill:#000000;fill-opacity:1;fill-rule:nonzero;stroke:none;font-family:Helvetica;-inkscape-font-specification:Helvetica"> z_sph(y_sph)</tspan></text>
</g><path
         d="m 801,6923 0,399 m -132,-5982 2,71 4,70 5,70 7,71 8,70 9,71 11,70 13,70 14,71 16,70 17,70 18,71 20,70 22,71 23,70 24,70 26,71 28,70 28,70 31,71 32,70 33,71 35,70 36,70 38,71 39,70 41,70 42,71 44,70 45,71 47,70 48,70 49,71 52,70 52,70 54,71 56,70 57,70 58,71 60,70 62,71 63,70 64,70 66,71 68,70 69,70 70,71 72,70 73,71 75,70 76,70 78,71 79,70 81,70 82,71 84,70 85,71 87,70 88,70 90,71 91,70 92,70 94,71 96,70 97,71 98,70 100,70 102,71 103,70 104,70 106,71 88,63 -71,2 -67,2 -63,2 -60,2 -57,2 -53,2 -50,2 -46,2 -43,2 -40,2 -36,3 -32,2 -29,2 -26,2 -22,2 -19,2 -15,2 -12,2 -8,2 -5,2 -1,2 1,2 2,2 4,2 5,2 7,2 9,2 9,2 12,2 12,2"
         id="path3378"
         style="fill:none;stroke:#ff0000;stroke-width:5;stroke-linecap:butt;stroke-linejoin:miter;stroke-miterlimit:10;stroke-opacity:1;stroke-dasharray:none" /><path
         d="m 3902,6461 15,3 15,2 17,2 19,2 20,2 22,2 23,2 25,2 26,2 27,2 29,2 31,2 32,2 33,2 35,2 37,2 38,2 39,2 41,2 42,2 44,3 46,2 42,2 -29,21 -26,20 -22,20 -19,20 -16,20 -12,21 -8,20 -6,20 -1,20 1,20 2,21 3,20 6,20 6,20 9,20 9,21 11,20 13,20 14,20 16,20 17,21 18,20 12,15 -11,2 -8,1 -4,1 0,1 1,2 3,1 4,1 6,1 7,1 3,3 -3,4 0,5 2,4 2,4 0,6"
         id="path3380"
         style="fill:none;stroke:#ff0000;stroke-width:5;stroke-linecap:butt;stroke-linejoin:miter;stroke-miterlimit:10;stroke-opacity:1;stroke-dasharray:none" /><path
         d="m 668,1270 4424,0 0,6220 -4424,0 0,-6220 z"
         id="path3382"
         style="fill:none;stroke:#000000;stroke-width:10;stroke-linecap:butt;stroke-linejoin:miter;stroke-miterlimit:10;stroke-opacity:1;stroke-dasharray:none" /></g></g></svg>