/* XPM */
static char * yade_favicon_xpm[] = {
"16 16 210 2",
"  	c None",
". 	c #F47372",
"+ 	c #F1B4B5",
"@ 	c #909092",
"# 	c #EA5A5A",
"$ 	c #8E4D3C",
"% 	c #746C35",
"& 	c #616233",
"* 	c #4B4B0E",
"= 	c #939191",
"- 	c #8A8A8A",
"; 	c #808380",
"> 	c #6F6E6D",
", 	c #4F4D2B",
"' 	c #646427",
") 	c #383827",
"! 	c #EB9D9E",
"~ 	c #7F6B5D",
"{ 	c #828500",
"] 	c #A2A200",
"^ 	c #838500",
"/ 	c #404031",
"( 	c #AEAEAE",
"_ 	c #8C8C8C",
": 	c #ABAAAF",
"< 	c #444319",
"[ 	c #9E9C01",
"} 	c #B4B106",
"| 	c #908E0C",
"1 	c #4C4C4F",
"2 	c #D0BBBB",
"3 	c #B07E83",
"4 	c #706137",
"5 	c #B9B704",
"6 	c #C8C901",
"7 	c #686800",
"8 	c #4C4C51",
"9 	c #A3A1A3",
"0 	c #ABA9AC",
"a 	c #45444A",
"b 	c #8F8E00",
"c 	c #A3A005",
"d 	c #AAA809",
"e 	c #25241B",
"f 	c #D79090",
"g 	c #E25E5E",
"h 	c #FCBEC9",
"i 	c #E6AF6F",
"j 	c #D6B700",
"k 	c #ACAA00",
"l 	c #3F4000",
"m 	c #53525D",
"n 	c #666472",
"o 	c #6A6A02",
"p 	c #B7B509",
"q 	c #A3A407",
"r 	c #3F4008",
"s 	c #E07B7A",
"t 	c #E35151",
"u 	c #DC6565",
"v 	c #C76B67",
"w 	c #D79E42",
"x 	c #ABA10D",
"y 	c #99A400",
"z 	c #393C21",
"A 	c #40401D",
"B 	c #9A9A01",
"C 	c #B6B406",
"D 	c #737100",
"E 	c #545157",
"F 	c #DCA8A8",
"G 	c #DAA5A7",
"H 	c #D86261",
"I 	c #D85D5D",
"J 	c #DEC7D1",
"K 	c #E1BE91",
"L 	c #B5C100",
"M 	c #848D04",
"N 	c #818103",
"O 	c #8C8C08",
"P 	c #7A7A02",
"Q 	c #504F33",
"R 	c #827F8D",
"S 	c #C85757",
"T 	c #CC6666",
"U 	c #D65757",
"V 	c #DB5353",
"W 	c #E59596",
"X 	c #E58A82",
"Y 	c #BFB500",
"Z 	c #B4BD05",
"` 	c #BBBA0B",
" .	c #A4A306",
"..	c #5E5D13",
"+.	c #565463",
"@.	c #B47070",
"#.	c #C69392",
"$.	c #D57E7E",
"%.	c #DA2929",
"&.	c #ED393A",
"*.	c #8B3537",
"=.	c #949700",
"-.	c #9AA706",
";.	c #ABB10A",
">.	c #747502",
",.	c #2C2B35",
"'.	c #B2AFBB",
").	c #B86363",
"!.	c #C8BEBE",
"~.	c #DBCFCF",
"{.	c #DF7373",
"].	c #F16466",
"^.	c #E79DA6",
"/.	c #5A5408",
"(.	c #EEAC06",
"_.	c #EBBA08",
":.	c #312E0B",
"<.	c #7D7B8A",
"[.	c #8C899A",
"}.	c #858394",
"|.	c #777588",
"1.	c #B75E5E",
"2.	c #C38181",
"3.	c #D58383",
"4.	c #AB5B5A",
"5.	c #DF484A",
"6.	c #F28088",
"7.	c #5F4507",
"8.	c #FD8D08",
"9.	c #FFBD0C",
"0.	c #3D330C",
"a.	c #B8B5C6",
"b.	c #858297",
"c.	c #BD6464",
"d.	c #C24748",
"e.	c #CD5E5F",
"f.	c #D2ADAE",
"g.	c #DA8E91",
"h.	c #E73643",
"i.	c #5B3206",
"j.	c #EF8308",
"k.	c #EF7510",
"l.	c #3C2A0F",
"m.	c #ADAEC2",
"n.	c #8F8DA3",
"o.	c #8A88A1",
"p.	c #9490AB",
"q.	c #69687B",
"r.	c #C30C0C",
"s.	c #BD3C3F",
"t.	c #C6777A",
"u.	c #D6B7BA",
"v.	c #D9A2A7",
"w.	c #D9848C",
"x.	c #DBC5C3",
"y.	c #E49A37",
"z.	c #F59212",
"A.	c #482E17",
"B.	c #D5ABBA",
"C.	c #817A95",
"D.	c #A491A9",
"E.	c #8986A2",
"F.	c #8E89A7",
"G.	c #7B7795",
"H.	c #C55252",
"I.	c #C37072",
"J.	c #BE4951",
"K.	c #CA6A72",
"L.	c #CF4E5A",
"M.	c #D49098",
"N.	c #DDD2D6",
"O.	c #E6A489",
"P.	c #EB7313",
"Q.	c #452716",
"R.	c #FEC1CD",
"S.	c #E76B80",
"T.	c #F7BBC5",
"U.	c #CBACBA",
"V.	c #9292AD",
"W.	c #837FA0",
"X.	c #C62F2F",
"Y.	c #C73E3F",
"Z.	c #C53F4A",
"`.	c #B93344",
" +	c #CD3C4D",
".+	c #D75767",
"++	c #E17484",
"@+	c #C46559",
"#+	c #DA743E",
"$+	c #53241E",
"%+	c #ED546E",
"&+	c #E66E82",
"*+	c #F3BCC6",
"=+	c #E19FAF",
"-+	c #B81415",
";+	c #BA4D4F",
">+	c #AD7782",
",+	c #AC4B5D",
"'+	c #C09FA9",
")+	c #BB3A52",
"!+	c #C14F67",
"~+	c #CD5858",
"{+	c #E1AEAC",
"]+	c #D9D0D0",
"^+	c #D25169",
"/+	c #DC7C8F",
"(+	c #F0C9D1",
"_+	c #E6A3B2",
":+	c #A27791",
"<+	c #AA98B1",
". +   @                         ",
"# $ % & * = - ;     > , '   )   ",
"! ~ { ] ^ / ( _   : < [ } | 1   ",
"2 3 4 5 6 7 8 9 0 a b c d e     ",
"f g h i j k l m n o p q r       ",
"s t u v w x y z A B C D E       ",
"F G H I J K L M N O P Q R       ",
"S T U V W X Y Z `  ...+.        ",
"@.#.$.%.&.*.=.-.;.>.,.    '.    ",
").!.~.{.].^./.(._.:.<.[.}.|.    ",
"1.2.3.4.5.6.7.8.9.0.a.    b.    ",
"c.d.e.f.g.h.i.j.k.l.m.n.o.  p.q.",
"r.s.t.u.v.w.x.y.z.A.B.C.D.E.F.G.",
"H.I.J.K.L.M.N.O.P.Q.R.S.T.U.V.W.",
"X.Y.Z.`. +.+++@+#+$+%+&+*+=+    ",
"-+;+>+,+'+)+!+~+{+]+^+/+(+_+:+<+"};
